<?xml version="1.0" encoding="UTF-8"?>
<svg width="26.78mm" height="27mm" version="1.1" viewBox="0 0 26.78 27" xmlns="http://www.w3.org/2000/svg"><g transform="translate(-23.17 -107.1)"><g transform="matrix(1.874 0 0 1.874 -43.66 -93.66)" style="font-feature-settings:normal;font-variant-caps:normal;font-variant-ligatures:normal;font-variant-numeric:normal" aria-label="O"><path d="m42.8 109.7q-1.637 0-2.539 1.209-0.9023 1.209-0.9023 3.404 0 2.186 0.9023 3.395 0.9023 1.209 2.539 1.209 1.646 0 2.549-1.209 0.9023-1.209 0.9023-3.395 0-2.195-0.9023-3.404-0.9023-1.209-2.549-1.209zm0-2.595q3.349 0 5.246 1.916 1.898 1.916 1.898 5.293 0 3.367-1.898 5.283-1.898 1.916-5.246 1.916-3.339 0-5.246-1.916-1.898-1.916-1.898-5.283 0-3.377 1.898-5.293 1.907-1.916 5.246-1.916z" stroke-width=".2646px" style="font-feature-settings:normal;font-variant-caps:normal;font-variant-ligatures:normal;font-variant-numeric:normal"/></g></g></svg>
